<svg width="24" height="24" viewBox="0 0 24 24" fill="none" xmlns="http://www.w3.org/2000/svg">
<g clip-path="url(#clip0_241_17614)">
<path d="M20.4853 18.3638L14.1213 11.9999L20.4853 5.6359C20.7666 5.35459 20.9246 4.97306 20.9246 4.57524C20.9246 4.17741 20.7666 3.79588 20.4853 3.51458C20.204 3.23327 19.8224 3.07524 19.4246 3.07524C19.0268 3.07524 18.6453 3.23327 18.364 3.51458L12 9.87854L5.63604 3.51458C5.35474 3.23327 4.9732 3.07524 4.57538 3.07524C4.17756 3.07524 3.79602 3.23327 3.51472 3.51458C3.23342 3.79588 3.07538 4.17741 3.07538 4.57524C3.07538 4.97306 3.23342 5.35459 3.51472 5.6359L9.87868 11.9999L3.51472 18.3638C3.23342 18.6451 3.07538 19.0267 3.07538 19.4245C3.07538 19.8223 3.23342 20.2038 3.51472 20.4851C3.79603 20.7664 4.17756 20.9245 4.57538 20.9245C4.97321 20.9245 5.35474 20.7664 5.63604 20.4851L12 14.1212L18.364 20.4851C18.6453 20.7664 19.0268 20.9245 19.4246 20.9245C19.8224 20.9245 20.204 20.7664 20.4853 20.4851C20.7666 20.2038 20.9246 19.8223 20.9246 19.4245C20.9246 19.0267 20.7666 18.6451 20.4853 18.3638Z" fill="#1A1B1F"/>
</g>
<defs>
<clipPath id="clip0_241_17614">
<rect width="24" height="24" fill="white"/>
</clipPath>
</defs>
</svg>
