<svg width="40" height="40" viewBox="0 0 40 40" fill="none" xmlns="http://www.w3.org/2000/svg">
<path d="M27.5387 25.7713L32.8925 31.1238L31.1238 32.8925L25.7713 27.5387C23.7797 29.1353 21.3025 30.0036 18.75 30C12.54 30 7.5 24.96 7.5 18.75C7.5 12.54 12.54 7.5 18.75 7.5C24.96 7.5 30 12.54 30 18.75C30.0036 21.3025 29.1353 23.7797 27.5387 25.7713ZM25.0312 24.8438C26.6176 23.2124 27.5036 21.0255 27.5 18.75C27.5 13.915 23.5837 10 18.75 10C13.915 10 10 13.915 10 18.75C10 23.5837 13.915 27.5 18.75 27.5C21.0255 27.5036 23.2124 26.6176 24.8438 25.0312L25.0312 24.8438ZM20.2225 13.97C19.8539 14.1365 19.5312 14.3899 19.2821 14.7086C19.033 15.0272 18.8649 15.4015 18.7923 15.7994C18.7197 16.1973 18.7447 16.6068 18.8651 16.9929C18.9856 17.379 19.1979 17.7301 19.4839 18.0161C19.7699 18.3021 20.121 18.5144 20.5071 18.6349C20.8932 18.7553 21.3027 18.7803 21.7006 18.7077C22.0985 18.6351 22.4728 18.467 22.7914 18.2179C23.1101 17.9688 23.3635 17.6461 23.53 17.2775C23.8585 18.3445 23.8204 19.4908 23.4218 20.5337C23.0233 21.5766 22.2871 22.456 21.3307 23.032C20.3743 23.6079 19.2526 23.8472 18.1444 23.7117C17.0362 23.5762 16.0052 23.0737 15.2158 22.2842C14.4263 21.4948 13.9238 20.4638 13.7883 19.3556C13.6528 18.2474 13.8921 17.1257 14.468 16.1693C15.044 15.2129 15.9234 14.4767 16.9663 14.0782C18.0092 13.6796 19.1555 13.6415 20.2225 13.97Z" fill="#050505"/>
</svg>
