<svg width="24" height="24" viewBox="0 0 24 24" fill="none" xmlns="http://www.w3.org/2000/svg">
<path d="M6 19.5C6 17.9087 6.63214 16.3826 7.75736 15.2574C8.88258 14.1321 10.4087 13.5 12 13.5C13.5913 13.5 15.1174 14.1321 16.2426 15.2574C17.3679 16.3826 18 17.9087 18 19.5H16.5C16.5 18.3065 16.0259 17.1619 15.182 16.318C14.3381 15.4741 13.1935 15 12 15C10.8065 15 9.66193 15.4741 8.81802 16.318C7.97411 17.1619 7.5 18.3065 7.5 19.5H6ZM12 12.75C9.51375 12.75 7.5 10.7362 7.5 8.25C7.5 5.76375 9.51375 3.75 12 3.75C14.4862 3.75 16.5 5.76375 16.5 8.25C16.5 10.7362 14.4862 12.75 12 12.75ZM12 11.25C13.6575 11.25 15 9.9075 15 8.25C15 6.5925 13.6575 5.25 12 5.25C10.3425 5.25 9 6.5925 9 8.25C9 9.9075 10.3425 11.25 12 11.25Z" fill="#151515"/>
</svg>
