<svg width="40" height="40" viewBox="0 0 40 40" fill="none" xmlns="http://www.w3.org/2000/svg">
<path d="M7.50502 32.5L9.19502 26.29C8.08144 24.3811 7.49639 22.21 7.50002 20C7.50002 13.0962 13.0963 7.5 20 7.5C26.9038 7.5 32.5 13.0962 32.5 20C32.5 26.9037 26.9038 32.5 20 32.5C17.791 32.5036 15.6208 31.919 13.7125 30.8062L7.50502 32.5ZM15.4888 14.135C15.3273 14.145 15.1696 14.1875 15.025 14.26C14.8894 14.3368 14.7656 14.4328 14.6575 14.545C14.5075 14.6862 14.4225 14.8087 14.3313 14.9275C13.8693 15.5287 13.6208 16.2668 13.625 17.025C13.6275 17.6375 13.7875 18.2337 14.0375 18.7912C14.5488 19.9187 15.39 21.1125 16.5013 22.2187C16.7688 22.485 17.03 22.7525 17.3113 23.0012C18.6905 24.2156 20.3341 25.0913 22.1113 25.5587L22.8225 25.6675C23.0538 25.68 23.285 25.6625 23.5175 25.6512C23.8816 25.6325 24.237 25.5339 24.5588 25.3625C24.7663 25.2525 24.8638 25.1975 25.0375 25.0875C25.0375 25.0875 25.0913 25.0525 25.1938 24.975C25.3625 24.85 25.4663 24.7612 25.6063 24.615C25.71 24.5075 25.8 24.3812 25.8688 24.2375C25.9663 24.0337 26.0638 23.645 26.1038 23.3212C26.1338 23.0737 26.125 22.9387 26.1213 22.855C26.1163 22.7212 26.005 22.5825 25.8838 22.5237L25.1563 22.1975C25.1563 22.1975 24.0688 21.7237 23.405 21.4212C23.335 21.3907 23.26 21.3734 23.1838 21.37C23.0982 21.3612 23.0118 21.3708 22.9303 21.3982C22.8488 21.4256 22.7741 21.4701 22.7113 21.5287V21.5262C22.705 21.5262 22.6213 21.5975 21.7175 22.6925C21.6656 22.7622 21.5942 22.8149 21.5123 22.8438C21.4303 22.8728 21.3417 22.8767 21.2575 22.855C21.1761 22.8332 21.0963 22.8056 21.0188 22.7725C20.8638 22.7075 20.81 22.6825 20.7038 22.6362L20.6975 22.6337C19.9824 22.3215 19.3203 21.8998 18.735 21.3837C18.5775 21.2462 18.4313 21.0962 18.2813 20.9512C17.7895 20.4803 17.3609 19.9475 17.0063 19.3662L16.9325 19.2475C16.8795 19.1677 16.8367 19.0816 16.805 18.9912C16.7575 18.8075 16.8813 18.66 16.8813 18.66C16.8813 18.66 17.185 18.3275 17.3263 18.1475C17.4439 17.9979 17.5536 17.8423 17.655 17.6812C17.8025 17.4437 17.8488 17.2 17.7713 17.0112C17.4213 16.1562 17.0588 15.305 16.6863 14.46C16.6125 14.2925 16.3938 14.1725 16.195 14.1487C16.1275 14.1412 16.06 14.1337 15.9925 14.1287C15.8246 14.1204 15.6564 14.1221 15.4888 14.1337V14.135Z" fill="#050505"/>
</svg>
