<svg width="143" height="131" viewBox="0 0 143 131" fill="none" xmlns="http://www.w3.org/2000/svg">
<rect x="-4.07113" y="-3.92758" width="146" height="144" rx="72" transform="matrix(-0.0179442 -0.999839 -0.999839 0.0179442 224.348 189.789)" fill="#FBEE9D"/>
<rect x="-4.07113" y="-3.92758" width="146" height="144" rx="72" transform="matrix(-0.0179442 -0.999839 -0.999839 0.0179442 224.348 189.789)" stroke="#151515" stroke-width="8"/>
<rect x="-4.07113" y="-3.92758" width="144" height="144" rx="72" transform="matrix(-0.0179442 -0.999839 -0.999839 0.0179442 222.912 109.802)" fill="#F6CAE4"/>
<rect x="-4.07113" y="-3.92758" width="144" height="144" rx="72" transform="matrix(-0.0179442 -0.999839 -0.999839 0.0179442 222.912 109.802)" stroke="#151515" stroke-width="8"/>
<rect x="-4.07113" y="-3.92758" width="146" height="144" rx="72" transform="matrix(-0.0179442 -0.999839 -0.999839 0.0179442 221.513 31.8146)" fill="#DACDF4"/>
<rect x="-4.07113" y="-3.92758" width="146" height="144" rx="72" transform="matrix(-0.0179442 -0.999839 -0.999839 0.0179442 221.513 31.8146)" stroke="#151515" stroke-width="8"/>
</svg>
