<svg width="32" height="32" viewBox="0 0 32 32" fill="none" xmlns="http://www.w3.org/2000/svg">
<path d="M25.9554 28H9.15536C8.0002 28 6.89234 27.5428 6.07552 26.7289C5.25869 25.9149 4.7998 24.8111 4.7998 23.66V6.92001C4.7998 5.93341 5.19314 4.98721 5.89327 4.28958C6.59341 3.59194 7.543 3.20001 8.53314 3.20001H25.9554C26.2854 3.20001 26.6019 3.33065 26.8353 3.5632C27.0687 3.79574 27.1998 4.11114 27.1998 4.44001V26.76C27.1998 27.0889 27.0687 27.4043 26.8353 27.6368C26.6019 27.8694 26.2854 28 25.9554 28ZM24.7109 25.52V21.8H9.15536C8.66029 21.8 8.1855 21.996 7.83543 22.3448C7.48536 22.6936 7.28869 23.1667 7.28869 23.66C7.28869 24.1533 7.48536 24.6264 7.83543 24.9752C8.1855 25.324 8.66029 25.52 9.15536 25.52H24.7109ZM13.5109 5.68001V15.6L17.8665 13.12L22.222 15.6V5.68001H13.5109Z" fill="black"/>
</svg>
