<svg width="473" height="80" viewBox="0 0 473 80" fill="none" xmlns="http://www.w3.org/2000/svg">
<g clip-path="url(#clip0_435_3570)">
<path d="M267.642 -75.7694C266.205 4.29897 329.948 70.3722 410.016 71.8092C490.085 73.2462 556.158 9.50288 557.595 -70.5655C559.032 -150.634 495.289 -216.707 415.22 -218.144C335.152 -219.581 269.079 -155.838 267.642 -75.7694Z" fill="#BEEAEF"/>
<path d="M267.642 -75.7694C266.205 4.29897 329.948 70.3722 410.016 71.8092C490.085 73.2462 556.158 9.50288 557.595 -70.5655C559.032 -150.634 495.289 -216.707 415.22 -218.144C335.152 -219.581 269.079 -155.838 267.642 -75.7694Z" stroke="#151515" stroke-width="10"/>
<path d="M99.1606 -75.7695C97.7236 4.29894 161.467 70.3722 241.535 71.8092C321.604 73.2462 387.677 9.50284 389.114 -70.5656C390.551 -150.634 326.808 -216.707 246.739 -218.144C166.671 -219.581 100.598 -155.838 99.1606 -75.7695Z" fill="#F6CAE4"/>
<path d="M99.1606 -75.7695C97.7236 4.29894 161.467 70.3722 241.535 71.8092C321.604 73.2462 387.677 9.50284 389.114 -70.5656C390.551 -150.634 326.808 -216.707 246.739 -218.144C166.671 -219.581 100.598 -155.838 99.1606 -75.7695Z" stroke="#151515" stroke-width="10"/>
<path d="M-65.2803 -75.7694C-66.7173 4.29895 -2.97402 70.3722 77.0944 71.8092C157.163 73.2462 223.236 9.50286 224.673 -70.5655C226.11 -150.634 162.367 -216.707 82.2983 -218.144C2.22989 -219.581 -63.8433 -155.838 -65.2803 -75.7694Z" fill="#FBEE9D"/>
<path d="M-65.2803 -75.7694C-66.7173 4.29895 -2.97402 70.3722 77.0944 71.8092C157.163 73.2462 223.236 9.50286 224.673 -70.5655C226.11 -150.634 162.367 -216.707 82.2983 -218.144C2.22989 -219.581 -63.8433 -155.838 -65.2803 -75.7694Z" stroke="#151515" stroke-width="10"/>
</g>
<defs>
<clipPath id="clip0_435_3570">
<rect width="79" height="472" fill="white" transform="translate(0.5 79.5) rotate(-90)"/>
</clipPath>
</defs>
</svg>
