<svg width="40" height="40" viewBox="0 0 40 40" fill="none" xmlns="http://www.w3.org/2000/svg">
<path d="M8.75 8.75H31.25C31.5815 8.75 31.8995 8.8817 32.1339 9.11612C32.3683 9.35054 32.5 9.66848 32.5 10V30C32.5 30.3315 32.3683 30.6495 32.1339 30.8839C31.8995 31.1183 31.5815 31.25 31.25 31.25H8.75C8.41848 31.25 8.10054 31.1183 7.86612 30.8839C7.6317 30.6495 7.5 30.3315 7.5 30V10C7.5 9.66848 7.6317 9.35054 7.86612 9.11612C8.10054 8.8817 8.41848 8.75 8.75 8.75ZM30 14.0475L20.09 22.9225L10 14.02V28.75H30V14.0475ZM10.6388 11.25L20.0763 19.5775L29.3775 11.25H10.6388Z" fill="#050505"/>
</svg>
