<svg width="186" height="196" viewBox="0 0 186 196" fill="none" xmlns="http://www.w3.org/2000/svg">
<rect x="-5.65594" y="0.101508" width="146" height="144" rx="72" transform="matrix(-0.719681 -0.694304 -0.694304 0.719681 320.419 81.7241)" fill="#FBEE9D"/>
<rect x="-5.65594" y="0.101508" width="146" height="144" rx="72" transform="matrix(-0.719681 -0.694304 -0.694304 0.719681 320.419 81.7241)" stroke="white" stroke-width="8"/>
<rect x="-5.65594" y="0.101508" width="144" height="144" rx="72" transform="matrix(-0.719681 -0.694304 -0.694304 0.719681 262.844 26.1796)" fill="#F6CAE4"/>
<rect x="-5.65594" y="0.101508" width="144" height="144" rx="72" transform="matrix(-0.719681 -0.694304 -0.694304 0.719681 262.844 26.1796)" stroke="white" stroke-width="8"/>
<rect x="-5.65594" y="0.101508" width="146" height="144" rx="72" transform="matrix(-0.719681 -0.694304 -0.694304 0.719681 206.709 -27.9756)" fill="#DACDF4"/>
<rect x="-5.65594" y="0.101508" width="146" height="144" rx="72" transform="matrix(-0.719681 -0.694304 -0.694304 0.719681 206.709 -27.9756)" stroke="white" stroke-width="8"/>
</svg>
