<svg width="29" height="58" viewBox="0 0 29 58" fill="none" xmlns="http://www.w3.org/2000/svg">
<path d="M0 -1.26763e-06L29 0L26.9454 1.16086C21.4669 4.25629 16.9515 8.88049 13.92 14.5C12.0576 8.97624 8.20934 4.39426 3.16452 1.69389L0 -1.26763e-06Z" fill="#EBEBEB"/>
<path d="M-6.33815e-07 14.5L29 14.5L26.9454 15.6609C21.4669 18.7563 16.9515 23.3805 13.92 29C12.0576 23.4762 8.20934 18.8943 3.16452 16.1939L-6.33815e-07 14.5Z" fill="#EBEBEB"/>
<path d="M-1.26763e-06 29L29 29L26.9454 30.1609C21.4669 33.2563 16.9515 37.8805 13.92 43.5C12.0576 37.9762 8.20934 33.3943 3.16452 30.6939L-1.26763e-06 29Z" fill="#EBEBEB"/>
<path d="M-1.90145e-06 43.5L29 43.5L26.9454 44.6609C21.4669 47.7563 16.9515 52.3805 13.92 58C12.0576 52.4762 8.20934 47.8943 3.16452 45.1939L-1.90145e-06 43.5Z" fill="#EBEBEB"/>
</svg>
