<svg width="24" height="24" viewBox="0 0 24 24" fill="none" xmlns="http://www.w3.org/2000/svg">
<path d="M5.25 5.25H18.75C18.9489 5.25 19.1397 5.32902 19.2803 5.46967C19.421 5.61032 19.5 5.80109 19.5 6V18C19.5 18.1989 19.421 18.3897 19.2803 18.5303C19.1397 18.671 18.9489 18.75 18.75 18.75H5.25C5.05109 18.75 4.86032 18.671 4.71967 18.5303C4.57902 18.3897 4.5 18.1989 4.5 18V6C4.5 5.80109 4.57902 5.61032 4.71967 5.46967C4.86032 5.32902 5.05109 5.25 5.25 5.25ZM18 8.4285L12.054 13.7535L6 8.412V17.25H18V8.4285ZM6.38325 6.75L12.0457 11.7465L17.6265 6.75H6.38325Z" fill="#151515"/>
</svg>
