<svg width="24" height="24" viewBox="0 0 24 24" fill="none" xmlns="http://www.w3.org/2000/svg">
<path d="M8.24983 18.7357C7.22537 18.657 6.25195 18.2567 5.46857 17.5918C4.68519 16.927 4.13191 16.0316 3.88772 15.0336C3.64353 14.0355 3.72093 12.9859 4.10886 12.0344C4.49679 11.083 5.17541 10.2785 6.04783 9.7357C6.23346 8.28826 6.94018 6.95807 8.03572 5.99406C9.13126 5.03005 10.5405 4.49829 11.9998 4.49829C13.4591 4.49829 14.8684 5.03005 15.9639 5.99406C17.0595 6.95807 17.7662 8.28826 17.9518 9.7357C18.8242 10.2785 19.5029 11.083 19.8908 12.0344C20.2787 12.9859 20.3561 14.0355 20.1119 15.0336C19.8677 16.0316 19.3145 16.927 18.5311 17.5918C17.7477 18.2567 16.7743 18.657 15.7498 18.7357V18.7499H8.24983V18.7357ZM12.7498 11.9999V8.99995H11.2498V11.9999H8.99983L11.9998 15.7499L14.9998 11.9999H12.7498Z" fill="#050505"/>
</svg>
