<svg width="40" height="40" viewBox="0 0 40 40" fill="none" xmlns="http://www.w3.org/2000/svg">
<path d="M8.75 8.75H31.25C31.5815 8.75 31.8995 8.8817 32.1339 9.11612C32.3683 9.35054 32.5 9.66848 32.5 10V30C32.5 30.3315 32.3683 30.6495 32.1339 30.8839C31.8995 31.1183 31.5815 31.25 31.25 31.25H8.75C8.41848 31.25 8.10054 31.1183 7.86612 30.8839C7.6317 30.6495 7.5 30.3315 7.5 30V10C7.5 9.66848 7.6317 9.35054 7.86612 9.11612C8.10054 8.8817 8.41848 8.75 8.75 8.75V8.75ZM20.075 19.6037L12.06 12.7975L10.4413 14.7025L20.0912 22.8963L29.5675 14.6962L27.9325 12.805L20.0762 19.6037H20.075Z" fill="#050505"/>
</svg>
