<svg width="472" height="80" viewBox="0 0 472 80" fill="none" xmlns="http://www.w3.org/2000/svg">
<g clip-path="url(#clip0_435_3577)">
<path d="M267.142 150.73C265.705 230.798 329.448 296.871 409.517 298.308C489.585 299.745 555.658 236.002 557.095 155.934C558.532 75.8651 494.789 9.79194 414.72 8.35492C334.652 6.9179 268.579 70.6612 267.142 150.73Z" fill="#BEEAEF"/>
<path d="M267.142 150.73C265.705 230.798 329.448 296.871 409.517 298.308C489.585 299.745 555.658 236.002 557.095 155.934C558.532 75.8651 494.789 9.79194 414.72 8.35492C334.652 6.9179 268.579 70.6612 267.142 150.73Z" stroke="#151515" stroke-width="10"/>
<path d="M98.6609 150.73C97.2239 230.798 160.967 296.871 241.036 298.308C321.104 299.745 387.177 236.002 388.614 155.933C390.051 75.8651 326.308 9.79191 246.239 8.35489C166.171 6.91787 100.098 70.6612 98.6609 150.73Z" fill="#F6CAE4"/>
<path d="M98.6609 150.73C97.2239 230.798 160.967 296.871 241.036 298.308C321.104 299.745 387.177 236.002 388.614 155.933C390.051 75.8651 326.308 9.79191 246.239 8.35489C166.171 6.91787 100.098 70.6612 98.6609 150.73Z" stroke="#151515" stroke-width="10"/>
<path d="M-65.78 150.73C-67.2171 230.798 -3.47375 296.871 76.5947 298.308C156.663 299.745 222.736 236.002 224.173 155.934C225.61 75.8651 161.867 9.79194 81.7986 8.35492C1.73016 6.9179 -64.343 70.6612 -65.78 150.73Z" fill="#FBEE9D"/>
<path d="M-65.78 150.73C-67.2171 230.798 -3.47375 296.871 76.5947 298.308C156.663 299.745 222.736 236.002 224.173 155.934C225.61 75.8651 161.867 9.79194 81.7986 8.35492C1.73016 6.9179 -64.343 70.6612 -65.78 150.73Z" stroke="#151515" stroke-width="10"/>
</g>
<defs>
<clipPath id="clip0_435_3577">
<rect width="80" height="472" fill="white" transform="translate(0.000244141 79.999) rotate(-90)"/>
</clipPath>
</defs>
</svg>
