<?xml version="1.0" encoding="UTF-8"?><svg id="Laag_1" xmlns="http://www.w3.org/2000/svg" viewBox="0 0 75.5 20.7"><defs><style>.cls-1{fill:#9f2c71;}.cls-2{fill:#afdef8;}.cls-3{fill:#1d1d1b;}</style></defs><g><path class="cls-3" d="M21.5,.2c.6,0,.9,.3,.9,.8s-.3,.8-.9,.8h-2.5c-.5,0-.7,.3-.7,.8s.2,.8,.7,.8h1.8c1.3,0,1.9,.6,1.9,1.7,0,2.6-1.3,3.8-3.9,3.8h-1.2c-.6,0-.9-.3-.9-.8s.3-.9,.9-.9h1.3c1.4,0,2.1-.6,2.1-1.9s-.1-.4-.4-.4h-1.5c-1.7,0-2.6-.8-2.6-2.5S17.5,.2,19.2,.2h2.3Z"/><path class="cls-3" d="M25.7,1V7.3h3.3c.6,0,.8,.3,.8,.8s-.3,.8-.8,.8h-4.2c-.4,0-.8-.4-.8-.8V1c0-.6,.3-.8,.8-.8s.8,.3,.8,.8Z"/><path class="cls-3" d="M32.5,1v7.1c0,.6-.3,.8-.8,.8s-.8-.3-.8-.8V1c0-.6,.3-.8,.8-.8s.8,.3,.8,.8Z"/><path class="cls-3" d="M41.8,1.1v7.1c0,.6-.3,.8-.8,.8s-.8-.3-.8-.8V3.3l-1.4,1.9c-.2,.3-.4,.5-.8,.5s-.5-.2-.7-.4l-1.6-2.1v5c0,.6-.3,.8-.8,.8s-.8-.3-.8-.8V1.1c0-.6,.2-.9,.7-.9s.6,.1,.8,.5l2.5,3.1,2.3-3.1c.3-.3,.5-.5,.8-.5,.5,0,.7,.3,.7,.9Z"/><path class="cls-3" d="M51.1,1.1v7.1c0,.6-.3,.8-.8,.8s-.8-.3-.8-.8V3.3l-1.4,1.9c-.2,.3-.4,.5-.8,.5s-.5-.2-.7-.4l-1.6-2.1v5c0,.6-.3,.8-.8,.8s-.8-.3-.8-.8V1.1c0-.6,.2-.9,.7-.9s.6,.1,.8,.5l2.5,3.1,2.3-3.1c.3-.3,.5-.5,.8-.5,.5,0,.7,.3,.7,.9Z"/><path class="cls-3" d="M54.2,3.6h3c.6,0,.8,.3,.8,.8s-.3,.8-.8,.8h-3v.7c0,.9,.5,1.4,1.6,1.4h1.8c.5,0,.8,.3,.8,.8s-.3,.8-.8,.8h-1.7c-2.3,0-3.4-1.1-3.4-3.4V.5c0-.2,.1-.3,.3-.3h4.6c.6,0,.8,.3,.8,.8s-.3,.8-.8,.8h-3.3v1.7Z"/><path class="cls-3" d="M61.2,8.1c0,.6-.3,.9-.8,.9s-.8-.3-.8-.9V.5c0-.2,.1-.3,.3-.3h3.7c1.3,0,1.9,.6,1.9,1.9v.6c0,1.2-.6,2.1-1.6,2.5l1.1,2.7c0,.1,0,.2,0,.3,0,.5-.4,.8-.8,.8s-.6-.2-.8-.5l-1.3-3h-1v2.6Zm0-4.3h1.5c.7,0,1.1-.4,1.1-1.2v-.5c0-.2,0-.3-.2-.3h-2.3v2Z"/><path class="cls-3" d="M21.8,12.4v6.3h1l.9-6.4c0-.5,.3-.7,.8-.7s.8,.3,.8,.8,0,.1,0,.2l-.9,6.4c-.1,.8-.8,1.3-1.5,1.3h-3.9c-.8,0-1.4-.5-1.5-1.3l-.9-6.6c0-.5,.4-.9,.8-.9s.7,.2,.8,.7l.9,6.4h1v-6.3c0-.6,.3-.8,.8-.8s.8,.3,.8,.8Z"/><path class="cls-3" d="M28.1,15h3c.6,0,.8,.3,.8,.8s-.3,.8-.8,.8h-3v.7c0,.9,.5,1.4,1.6,1.4h1.8c.5,0,.8,.3,.8,.8s-.3,.8-.8,.8h-1.7c-2.3,0-3.4-1.1-3.4-3.4v-5c0-.2,.1-.3,.3-.3h4.6c.6,0,.8,.3,.8,.8s-.3,.8-.8,.8h-3.3v1.7Z"/><path class="cls-3" d="M35.2,19.5c0,.6-.3,.9-.8,.9s-.8-.3-.8-.9v-7.6c0-.2,.1-.3,.3-.3h3.7c1.3,0,1.9,.6,1.9,1.9v.6c0,1.2-.6,2.1-1.6,2.5l1.1,2.7c0,.1,0,.2,0,.3,0,.5-.4,.8-.8,.8s-.6-.2-.8-.5l-1.3-3h-1v2.6Zm0-4.3h1.5c.7,0,1.1-.4,1.1-1.2v-.5c0-.2,0-.3-.2-.3h-2.3v2Z"/><path class="cls-3" d="M42.4,12.4v2.7h.5l2.4-3.2c.2-.2,.4-.3,.6-.3,.5,0,.8,.4,.8,.9s0,.4-.2,.5l-2.4,3,2.4,3c.1,.1,.2,.3,.2,.5,0,.4-.4,.8-.8,.8s-.5,0-.6-.3l-2.4-3.2h-.5v2.7c0,.6-.3,.8-.8,.8s-.8-.3-.8-.8v-7.1c0-.6,.3-.8,.8-.8s.8,.3,.8,.8Z"/><path class="cls-3" d="M49.5,15h3c.6,0,.8,.3,.8,.8s-.3,.8-.8,.8h-3v.7c0,.9,.5,1.4,1.6,1.4h1.8c.5,0,.8,.3,.8,.8s-.3,.8-.8,.8h-1.7c-2.3,0-3.4-1.1-3.4-3.4v-5c0-.2,.1-.3,.3-.3h4.6c.6,0,.8,.3,.8,.8s-.3,.8-.8,.8h-3.3v1.7Z"/><path class="cls-3" d="M61.2,12.4v6.9c0,.7-.3,1.1-1,1.1s-.8-.2-1-.7l-2.7-4.8v4.6c0,.6-.3,.8-.8,.8s-.8-.3-.8-.8v-6.9c0-.7,.3-1,1-1s.7,.2,1,.6l2.7,4.8v-4.6c0-.6,.3-.8,.8-.8s.8,.3,.8,.8Z"/><path class="cls-1" d="M65.1,19.2c0,.7-.6,1.3-1.3,1.3s-1.3-.6-1.3-1.3,.6-1.3,1.3-1.3,1.3,.6,1.3,1.3Z"/><path class="cls-3" d="M71,19.7v-.8h-2.9v.8c-.2,.5-.5,.7-.9,.7s-.8-.3-.8-.8l1-6.9h0c0-.7,.5-1.1,1.3-1.1h1.7c.7,0,1.2,.4,1.3,1.1l1,6.9c0,.5-.4,.9-.9,.9s-.7-.2-.8-.7Zm-2.7-2.5h2.3l-.6-3.9h-1.2l-.6,3.9Z"/><path class="cls-3" d="M75.5,12.4v7.1c0,.6-.3,.8-.8,.8s-.8-.3-.8-.8v-7.1c0-.6,.3-.8,.8-.8s.8,.3,.8,.8Z"/></g><g><path class="cls-2" d="M7.3,0c.8,0,1.4,.6,1.4,1.4s-.1,.6-.3,.9l1.3,2.5h4.1v1h-4.7l-1.6-3c0,0-.1,0-.2,0-.8,0-1.4-.6-1.4-1.4C5.9,.6,6.5,0,7.3,0h0Z"/><path class="cls-2" d="M5.7,15.2l1.4-2.8h6.7v1H7.8l-1.4,2.9h-2.1c-.2,.5-.7,.9-1.3,.9s-1.4-.6-1.4-1.4,.6-1.4,1.4-1.4,1.1,.4,1.3,.9h1.5Z"/><path class="cls-2" d="M1.4,9c.6,0,1.1,.4,1.3,.9H13.9v.9H2.7c-.2,.6-.7,.9-1.3,1S0,11.1,0,10.4s.6-1.4,1.4-1.4h0Z"/><path class="cls-2" d="M2.9,3.5c.6,0,1.1,.4,1.3,.9h2.1l1.5,2.8h6.1v1H7.2l-1.5-2.8h-1.5c-.2,.5-.7,.9-1.3,.9s-1.4-.6-1.4-1.4c0-.8,.6-1.4,1.4-1.4h0Z"/><path class="cls-2" d="M7.6,17.9l1.6-3h4.7v1h-4.1l-1.3,2.5c.2,.2,.3,.5,.3,.9,0,.8-.6,1.4-1.4,1.4s-1.4-.6-1.4-1.4,.6-1.4,1.4-1.4,.1,0,.2,0h0Z"/></g></svg>