<?xml version="1.0" encoding="UTF-8"?><svg id="Laag_1" xmlns="http://www.w3.org/2000/svg" viewBox="0 0 146.4 212.5"><defs><style>.cls-1{stroke-width:6px;}.cls-1,.cls-2,.cls-3{fill:none;stroke:#606060;stroke-miterlimit:10;}.cls-1,.cls-3{stroke-linecap:round;}.cls-4{fill:#ffde00;}.cls-5{fill:#fe9;}.cls-6{fill:#fdfdfd;}.cls-7{fill:#b0b4b6;}.cls-8{fill:#afddf7;}.cls-9{fill:#606060;}.cls-3{stroke-width:5px;}</style></defs><line class="cls-1" x1="74.1" y1="76.7" x2="74.1" y2="70.2"/><line class="cls-1" x1="56.9" y1="176.4" x2="56.9" y2="117.5"/><line class="cls-1" x1="92" y1="176.4" x2="92" y2="117.5"/><g><path class="cls-9" d="M108.9,49.9c-.5-4-4.1-6.9-8.1-6.5-4,.5-6.9,4.1-6.5,8.1,.5,4,4.1,6.9,8.1,6.5,4-.5,6.9-4.1,6.5-8.1Z"/><path class="cls-2" d="M106.9,51c.3,0,4.1-.5,4.1-.5l7.3-18.5"/></g><g><path class="cls-9" d="M38.3,58c-.5-4,2.4-7.7,6.5-8.1,4-.5,7.7,2.4,8.1,6.5,.5,4-2.4,7.7-6.5,8.1-4,.5-7.7-2.4-8.1-6.5Z"/><path class="cls-2" d="M40.5,58.6c-.3,0-4.1,.5-4.1,.5l-11.3-16.3"/></g><polygon class="cls-5" points="96.8 67.6 54.2 72.5 36.8 41.4 106.8 33.4 96.8 67.6"/><path class="cls-6" d="M84.9,53l-21.4,2.5c-2.6,.3-4.9-1.6-5.2-4.1h0c-.3-2.6,1.6-4.9,4.1-5.2l21.4-2.5c2.6-.3,4.9,1.6,5.2,4.1h0c.3,2.6-1.6,4.9-4.1,5.2Z"/><path class="cls-7" d="M62.6,48.5l21.4-2.5c2.2-.2,4.1,1,4.9,3,0-.4,0-.8,0-1.2-.3-2.6-2.6-4.4-5.2-4.1l-21.4,2.5c-2.6,.3-4.4,2.6-4.1,5.2,0,.4,.2,.8,.3,1.2,.3-2.1,1.9-3.7,4.1-4Z"/><polygon class="cls-8" points="62.5 174.5 51.5 174.5 48.7 204.4 39.7 212.5 63.3 212.5 62.5 174.5"/><path class="cls-6" d="M58,183.2h-4.5c-.6,0-1.1-.5-1.1-1.1h0c0-.6,.5-1.1,1.1-1.1h4.5c.6,0,1.1,.5,1.1,1.1h0c0,.6-.5,1.1-1.1,1.1Z"/><path class="cls-6" d="M58,188.9h-4.5c-.6,0-1.1-.5-1.1-1.1h0c0-.6,.5-1.1,1.1-1.1h4.5c.6,0,1.1,.5,1.1,1.1h0c0,.6-.5,1.1-1.1,1.1Z"/><path class="cls-6" d="M58,194.7h-4.5c-.6,0-1.1-.5-1.1-1.1h0c0-.6,.5-1.1,1.1-1.1h4.5c.6,0,1.1,.5,1.1,1.1h0c0,.6-.5,1.1-1.1,1.1Z"/><path class="cls-6" d="M58,200.4h-4.5c-.6,0-1.1-.5-1.1-1.1h0c0-.6,.5-1.1,1.1-1.1h4.5c.6,0,1.1,.5,1.1,1.1h0c0,.6-.5,1.1-1.1,1.1Z"/><polygon class="cls-8" points="86.8 174.5 97.8 174.5 100.6 204.4 109.6 212.5 86 212.5 86.8 174.5"/><path class="cls-6" d="M91.3,183.2h4.5c.6,0,1.1-.5,1.1-1.1h0c0-.6-.5-1.1-1.1-1.1h-4.5c-.6,0-1.1,.5-1.1,1.1h0c0,.6,.5,1.1,1.1,1.1Z"/><path class="cls-6" d="M91.3,188.9h4.5c.6,0,1.1-.5,1.1-1.1h0c0-.6-.5-1.1-1.1-1.1h-4.5c-.6,0-1.1,.5-1.1,1.1h0c0,.6,.5,1.1,1.1,1.1Z"/><path class="cls-6" d="M91.3,194.7h4.5c.6,0,1.1-.5,1.1-1.1h0c0-.6-.5-1.1-1.1-1.1h-4.5c-.6,0-1.1,.5-1.1,1.1h0c0,.6,.5,1.1,1.1,1.1Z"/><path class="cls-6" d="M91.3,200.4h4.5c.6,0,1.1-.5,1.1-1.1h0c0-.6-.5-1.1-1.1-1.1h-4.5c-.6,0-1.1,.5-1.1,1.1h0c0,.6,.5,1.1,1.1,1.1Z"/><ellipse class="cls-5" cx="74.1" cy="98.4" rx="44.2" ry="24.6"/><path class="cls-8" d="M132.5,18.6s-5.6,7.1-11.8,4.3c-6.3-2.7-2-9.2-2-9.2l5.4,1.2s-1.1,7,6,1.3l2.4,2.3Z"/><path class="cls-8" d="M132.2,13.8s4.7-3.9,3.5-7.6c-1.2-3.7-7.9,1.7-7.9,1.7l-3.5-5.9s12.8-5.8,15.8,2.1c3,7.9-7,13.8-7,13.8l-.9-4.2Z"/><path class="cls-3" d="M126.4,90.7s35.5-45.6,5.5-74.6"/><circle class="cls-5" cx="126.4" cy="92.1" r="12.4" transform="translate(-28.1 116.3) rotate(-45)"/><path class="cls-4" d="M126.4,97.1c-5.6,0-10.3-3.7-11.8-8.7-.4,1.2-.5,2.4-.5,3.7,0,6.8,5.5,12.4,12.4,12.4s12.4-5.5,12.4-12.4-.2-2.5-.5-3.7c-1.6,5.1-6.3,8.7-11.8,8.7Z"/><path class="cls-8" d="M14,18.6s5.6,7.1,11.8,4.3c6.3-2.7,2-9.2,2-9.2l-5.4,1.2s1.1,7-6,1.3l-2.4,2.3Z"/><path class="cls-8" d="M14.3,13.8s-4.7-3.9-3.5-7.6c1.2-3.7,7.9,1.7,7.9,1.7l3.5-5.9S9.4-3.8,6.3,4.2c-3,7.9,7,13.8,7,13.8l.9-4.2Z"/><path class="cls-3" d="M20,90.7S-15.5,45.1,14.5,16.1"/><path class="cls-5" d="M7.7,92.1c0,6.8,5.5,12.4,12.4,12.4s12.4-5.5,12.4-12.4-5.5-12.4-12.4-12.4-12.4,5.5-12.4,12.4Z"/><path class="cls-4" d="M20,97.1c5.6,0,10.3-3.7,11.8-8.7,.4,1.2,.5,2.4,.5,3.7,0,6.8-5.5,12.4-12.4,12.4s-12.4-5.5-12.4-12.4,.2-2.5,.5-3.7c1.6,5.1,6.3,8.7,11.8,8.7Z"/><path class="cls-9" d="M66.4,50.9c.2,1.4-.7,2.6-2,2.8-1.3,.1-2.4-.9-2.6-2.3-.2-1.4,.7-2.6,2-2.8,1.3-.1,2.4,.9,2.6,2.3Z"/><path class="cls-9" d="M84.5,48.8c.2,1.4-.7,2.6-2,2.8-1.3,.1-2.4-.9-2.6-2.3-.2-1.4,.7-2.6,2-2.8,1.3-.1,2.4,.9,2.6,2.3Z"/><path class="cls-6" d="M63,58.6l22.9-2.6s-.4,9.5-10.3,10.7-12.6-8.1-12.6-8.1Z"/><path class="cls-7" d="M85.6,57.6c.2-1,.2-1.7,.2-1.7l-22.9,2.6s.2,.6,.6,1.6l22-2.5Z"/><g><path class="cls-9" d="M70,66.1l-.9-8.2h-1l.9,7.7c.3,.2,.7,.3,1.1,.4Z"/><path class="cls-9" d="M66.1,63.5l-.6-5.2h-1l.4,3.9c.3,.4,.7,.9,1.2,1.3Z"/><path class="cls-9" d="M72.8,57.5h-1l1,9.2c.3,0,.7,0,1,0l-1.1-9.3Z"/><path class="cls-9" d="M84.3,61.2l-.6-5h-1l.7,6.3c.3-.4,.6-.9,.9-1.3Z"/><path class="cls-9" d="M80,56.6h-1l1,8.7c.3-.2,.6-.4,.9-.6l-.9-8.1Z"/><path class="cls-9" d="M77.5,66.3l-1.1-9.2h-1l1.1,9.4c.3,0,.7-.1,1-.2Z"/></g></svg>