<svg width="26" height="26" viewBox="0 0 26 26" fill="none" xmlns="http://www.w3.org/2000/svg">
<path d="M22.75 4.875H3.25C3.03451 4.875 2.82785 4.9606 2.67548 5.11298C2.5231 5.26535 2.4375 5.47201 2.4375 5.6875V19.5C2.4375 19.931 2.6087 20.3443 2.91345 20.649C3.2182 20.9538 3.63152 21.125 4.0625 21.125H21.9375C22.3685 21.125 22.7818 20.9538 23.0865 20.649C23.3913 20.3443 23.5625 19.931 23.5625 19.5V5.6875C23.5625 5.47201 23.4769 5.26535 23.3245 5.11298C23.1722 4.9606 22.9655 4.875 22.75 4.875ZM21.9375 19.5H4.0625V7.53594L12.4516 15.2242C12.6013 15.3612 12.797 15.4372 13 15.4372C13.203 15.4372 13.3987 15.3612 13.5484 15.2242L21.9375 7.53594V19.5Z" fill="#0D0E10"/>
</svg>
