<svg width="166" height="24" viewBox="0 0 166 24" fill="none" xmlns="http://www.w3.org/2000/svg">
<g clip-path="url(#clip0_158_386)">
<path fill-rule="evenodd" clip-rule="evenodd" d="M159.168 9.56451L161.612 10.4046C164.222 11.2943 165.416 12.7188 165.416 15.0329C165.416 18.0959 162.794 19.6613 159.486 19.6613C157.398 19.6613 155.567 19.0508 154.447 18.3385V15.1321C155.881 16.2198 157.624 16.8246 159.424 16.8592C161.001 16.8592 162.196 16.3766 162.196 15.1556C162.196 14.1433 161.538 13.7624 160.369 13.3293L158.076 12.5674C155.763 11.803 154.236 10.6081 154.236 8.01478C154.236 5.10316 156.729 3.53777 159.784 3.53777C161.45 3.49763 163.094 3.92033 164.533 4.75877V7.93912C163.186 6.9451 161.711 6.31112 159.901 6.31112C158.502 6.31112 157.434 6.79378 157.434 7.86085C157.434 8.82878 158.061 9.20969 159.168 9.56451ZM50.2015 3.53777C45.8492 3.53777 42.8206 6.92944 42.8206 11.5995C42.8206 16.2696 45.8492 19.6613 50.2015 19.6613C54.5538 19.6613 57.6059 16.2539 57.6059 11.5995C57.6059 6.94509 54.5512 3.53777 50.2015 3.53777ZM50.2015 16.7627C47.7316 16.7627 46.1286 14.652 46.1286 11.5995C46.1286 8.54701 47.7316 6.43895 50.2015 6.43895C52.6714 6.43895 54.324 8.54962 54.324 11.5995C54.324 14.6494 52.6949 16.7627 50.2015 16.7627ZM29.2651 3.78822V6.63722H34.278V19.403H37.5624V6.63722H41.5074L42.6013 3.78822H29.2651ZM60.3786 3.78822H66.7412C70.0491 3.78822 72.2396 5.59363 72.2396 8.89921C72.2396 12.2048 70.0518 13.9867 66.7438 13.9867H63.6108V19.403H60.3786V3.78822ZM63.6108 11.2186H66.5376C68.2163 11.2186 69.0309 10.2481 69.0309 8.90965C69.0309 7.5008 68.2163 6.56156 66.5376 6.56156H63.6108V11.2186ZM77.8243 3.78822L71.8455 19.403H75.1012L76.4771 15.6382H82.328L83.7274 19.403H87.038L81.0565 3.78822H77.8243ZM77.4927 12.8936L79.4012 7.7043L81.3098 12.8936H77.4927ZM95.9932 6.63722H88.9465V3.78822H101.032V3.88997L93.7034 16.5279H100.93V19.403H88.6149V19.3012L95.9932 6.63722ZM113.984 3.78822H110.729V19.403H120.154L121.256 16.5279H113.984V3.78822ZM122.927 19.403L128.905 3.78822H132.135L138.114 19.403H134.814L133.414 15.6382H127.558L126.182 19.403H122.927ZM130.482 7.7043L128.574 12.8936H132.391L130.482 7.7043ZM149.489 11.3412C150.636 10.9342 151.552 9.71321 151.552 8.03564C151.552 5.23881 149.542 3.78822 146.283 3.78822H140.302V19.403H146.792C150.051 19.403 152.035 17.8376 152.035 14.9677C152.044 14.1731 151.803 13.3958 151.346 12.7453C150.889 12.0947 150.24 11.6037 149.489 11.3412ZM143.432 6.53547H146.08C147.646 6.53547 148.445 7.0938 148.445 8.34089C148.445 9.58798 147.633 10.1959 146.08 10.1959H143.432V6.53547ZM146.513 16.6557H143.432V12.7422H146.513C148.04 12.7422 148.863 13.4806 148.863 14.7016C148.863 15.9226 148.035 16.6557 146.513 16.6557Z" fill="white"/>
<path fill-rule="evenodd" clip-rule="evenodd" d="M17.9522 7.29992L13.5164 0H17.9522V7.29992ZM10.9603 0.117391L0.172293 4.67006L9.03873 6.53287L10.9603 0.117391ZM17.0332 8.21046L12.224 0.292204L10.2737 6.79378L17.0332 8.21046ZM10.6418 8.15828L17.9522 24V9.72367L17.9287 9.68715L10.6418 8.15828ZM16.0906 22.9694L0 5.92237L9.10663 7.83475L16.0906 22.9694Z" fill="white"/>
</g>
<defs>
<clipPath id="clip0_158_386">
<rect width="165.415" height="24" fill="white"/>
</clipPath>
</defs>
</svg>
