<svg xmlns="http://www.w3.org/2000/svg" width="41.354" height="56.399" viewBox="0 0 41.354 56.399">
  <g id="Group_99" data-name="Group 99" transform="translate(-1090.464 -156.586)">
    <path id="Path_52" data-name="Path 52" d="M160.642-3519.628s3.364,12.234-8.564,22.327-18.045-2.141-18.045-2.141-3.67-7.646,8.258-14.069,3.67-10.093,9.787-13.152S160.642-3519.628,160.642-3519.628Z" transform="translate(969.701 3684.871)" fill="#5470c6" stroke="#fff" stroke-width="2"/>
    <path id="Path_53" data-name="Path 53" d="M133.938-3519.628s-3.364,12.234,8.564,22.327,18.045-2.141,18.045-2.141,3.67-7.646-8.258-14.069-3.67-10.093-9.787-13.152S133.938-3519.628,133.938-3519.628Z" transform="translate(958 3684.871)" fill="#5470c6" stroke="#fff" stroke-width="2"/>
    <path id="Path_54" data-name="Path 54" d="M160.46-3519.166s3.342,12.976-8.507,23.682-17.924-2.271-17.924-2.271-3.646-8.11,8.2-14.923,3.646-10.705,9.722-13.949S160.46-3519.166,160.46-3519.166Z" transform="translate(969.886 3703.188)" fill="#5470c6" stroke="#fff" stroke-width="2"/>
    <path id="Path_55" data-name="Path 55" d="M133.935-3519.166s-3.342,12.976,8.507,23.682,17.924-2.271,17.924-2.271,3.646-8.11-8.2-14.923-3.646-10.705-9.722-13.949S133.935-3519.166,133.935-3519.166Z" transform="translate(958 3703.188)" fill="#5470c6" stroke="#fff" stroke-width="2"/>
  </g>
</svg>
