<svg xmlns="http://www.w3.org/2000/svg" xmlns:xlink="http://www.w3.org/1999/xlink" viewBox="0 0 300 56"><path d="M12.7 12.5H3V8.6h23.3v3.9h-9.6V43h-4.1V12.5zm18.4 30.2c-1.4-.7-2.5-1.7-3.3-2.9-.8-1.2-1.2-2.6-1.2-4.2 0-2.6 1-4.6 2.9-6.1 2-1.5 4.4-2.2 7.4-2.2 1.5 0 2.8.2 4.1.5 1.3.3 2.2.7 2.9 1.1v-1.5c0-1.8-.6-3.3-1.9-4.4-1.3-1.1-2.9-1.7-4.8-1.7-1.4 0-2.6.3-3.8.9-1.2.6-2.1 1.4-2.7 2.5l-3.1-2.3c1-1.5 2.3-2.6 4-3.5 1.7-.8 3.5-1.2 5.6-1.2 3.3 0 5.9.9 7.8 2.6 1.9 1.7 2.9 4.1 2.9 7.1V43H44v-3.5h-.2c-.7 1.2-1.8 2.2-3.2 3-1.4.8-3 1.2-4.8 1.2-1.7.1-3.3-.3-4.7-1zm9-3.6c1.2-.7 2.1-1.6 2.8-2.8.7-1.2 1.1-2.5 1.1-3.9-.8-.5-1.7-.9-2.8-1.2-1.1-.3-2.3-.5-3.6-.5-2.2 0-3.9.5-5.1 1.4-1.1.9-1.7 2.1-1.7 3.6 0 1.3.5 2.4 1.5 3.3 1 .8 2.3 1.2 3.9 1.2 1.5 0 2.7-.4 3.9-1.1zM54.5 8.6h4.1V43h-4.1V8.6zm11.1 0h4.1v21.6l11.5-11.7h5.2v.2l-9.6 9.7 9.8 14.4v.2h-4.8l-7.9-11.8-4.2 4.2V43h-4.1V8.6zm98.9 0h12.3c1.7 0 3.4.4 4.9 1.2 1.5.8 2.7 1.9 3.6 3.3.9 1.4 1.3 3 1.3 4.8 0 1.7-.4 3.1-1.3 4.4-.8 1.2-2 2.2-3.4 2.9v.2c1.7.6 3.1 1.6 4.2 3s1.6 3.1 1.6 4.9c0 1.9-.5 3.5-1.4 5-.9 1.5-2.2 2.6-3.8 3.5s-3.3 1.2-5.1 1.2h-13V8.6zm12.4 14.9c1.2 0 2.2-.3 3-.8.9-.5 1.6-1.2 2-2.1.5-.8.7-1.7.7-2.6 0-.9-.2-1.7-.7-2.6-.5-.8-1.1-1.5-2-2.1-.8-.5-1.8-.8-3-.8h-8.5v11h8.5zm.9 15.6c1.2 0 2.2-.3 3.1-.9.9-.6 1.6-1.3 2.1-2.2s.7-1.8.7-2.8-.3-1.9-.8-2.8c-.5-.9-1.2-1.6-2.2-2.2-.9-.6-2-.8-3.2-.8h-9v11.8h9.3zm20.8 2.9c-1.9-1.2-3.4-2.7-4.5-4.7s-1.6-4.2-1.6-6.6.5-4.6 1.6-6.6 2.6-3.6 4.5-4.7 4.1-1.7 6.5-1.7c2.4 0 4.6.6 6.5 1.7s3.4 2.7 4.5 4.7 1.6 4.2 1.6 6.6-.5 4.6-1.6 6.6-2.6 3.6-4.5 4.7-4.1 1.7-6.5 1.7c-2.4.1-4.6-.5-6.5-1.7zm10.7-3.1c1.3-.8 2.3-1.8 3.1-3.2.8-1.4 1.2-3.1 1.2-4.9 0-1.9-.4-3.5-1.2-4.9s-1.8-2.5-3.1-3.2c-1.3-.8-2.7-1.1-4.2-1.1s-2.9.4-4.2 1.1c-1.3.8-2.4 1.8-3.1 3.2s-1.2 3.1-1.2 4.9c0 1.9.4 3.5 1.2 4.9.8 1.4 1.8 2.5 3.1 3.2 1.3.8 2.7 1.1 4.2 1.1s2.9-.3 4.2-1.1zm18.8 3.1c-1.9-1.2-3.4-2.7-4.5-4.7s-1.6-4.2-1.6-6.6.5-4.6 1.6-6.6 2.6-3.6 4.5-4.7 4.1-1.7 6.5-1.7c2.4 0 4.6.6 6.5 1.7s3.4 2.7 4.5 4.7 1.6 4.2 1.6 6.6-.5 4.6-1.6 6.6-2.6 3.6-4.5 4.7-4.1 1.7-6.5 1.7c-2.4.1-4.5-.5-6.5-1.7zm10.7-3.1c1.3-.8 2.3-1.8 3.1-3.2.8-1.4 1.2-3.1 1.2-4.9 0-1.9-.4-3.5-1.2-4.9s-1.8-2.5-3.1-3.2c-1.3-.8-2.7-1.1-4.2-1.1s-2.9.4-4.2 1.1c-1.3.8-2.4 1.8-3.1 3.2s-1.2 3.1-1.2 4.9c0 1.9.4 3.5 1.2 4.9.8 1.4 1.8 2.5 3.1 3.2 1.3.8 2.7 1.1 4.2 1.1s2.9-.3 4.2-1.1zm13.9-30.3h4.1v21.6l11.5-11.7h5.2v.2l-9.6 9.7 9.8 14.4v.2h-4.8L261 31.2l-4.2 4.2V43h-4.1V8.6zm26.7 33.3c-1.8-1.2-3-2.8-3.7-4.7l3.6-1.6c.6 1.5 1.5 2.6 2.7 3.4 1.2.8 2.5 1.2 4 1.2s2.8-.3 3.9-.9c1.1-.6 1.6-1.5 1.6-2.7 0-1-.4-1.8-1.3-2.5-.9-.6-2.2-1.2-4.1-1.6l-3-.8c-2-.5-3.6-1.3-4.8-2.4-1.2-1.2-1.9-2.6-1.9-4.5 0-1.4.4-2.6 1.3-3.7.8-1.1 2-1.9 3.4-2.5 1.4-.6 2.9-.9 4.6-.9 2.1 0 4.1.5 5.7 1.4 1.7.9 2.9 2.2 3.6 3.9l-3.6 1.6c-1.1-2.2-3-3.3-5.8-3.3-1.3 0-2.5.3-3.5.9s-1.5 1.4-1.5 2.4c0 .9.4 1.6 1.1 2.2.7.6 1.8 1 3.2 1.4l3.6.9c2.4.6 4.2 1.5 5.4 2.7 1.2 1.2 1.8 2.7 1.8 4.4 0 1.5-.4 2.8-1.3 4-.9 1.1-2 2-3.5 2.6s-3.1.9-4.9.9c-2.7.1-4.9-.5-6.6-1.8z" fill="#4285F4"/><defs><path id="a" d="M141.3 8.3h-34.7c-2.4 0-4.3 2-4.3 4.3v39L111 43h30.3c2.4 0 4.3-2 4.3-4.3v-26c.1-2.4-1.9-4.4-4.3-4.4z"/></defs><clipPath id="b"><use xlink:href="#a" overflow="visible"/></clipPath><g clip-path="url(#b)"><defs><path id="c" d="M1 4h298v52H1z"/></defs><clipPath id="d"><use xlink:href="#c" overflow="visible"/></clipPath><path clip-path="url(#d)" fill="#EA4335" d="M97.3 3.3h53.3v53.3H97.3z"/></g><path d="M118 33.1c-.5-.2-.9-.4-1.2-.7-.7-.7-1-1.7-1-2.9V23h-2.1v-2.3h2.1v-3.5h2.6v3.5h3V23h-3v6c0 .7.1 1.1.4 1.4.2.3.7.5 1.2.5.3 0 .5 0 .7-.1.2-.1.4-.2.7-.3V33c-.5.2-1.2.4-1.9.4-.5 0-1-.1-1.5-.3zm8.4-.6c-1-.6-1.7-1.3-2.3-2.3-.5-1-.8-2.1-.8-3.3s.3-2.3.8-3.3 1.3-1.8 2.3-2.3c1-.6 2.1-.9 3.3-.9 1.2 0 2.3.3 3.3.9 1 .6 1.7 1.4 2.3 2.4.5 1 .8 2.1.8 3.3 0 1.2-.3 2.3-.8 3.3s-1.3 1.8-2.3 2.3c-1 .6-2.1.9-3.3.9-1.3-.1-2.4-.4-3.3-1zm5.2-2c.6-.3 1-.8 1.4-1.4.3-.6.5-1.3.5-2.2 0-.8-.2-1.6-.5-2.2-.3-.6-.8-1.1-1.4-1.4-.6-.3-1.2-.5-1.9-.5s-1.3.2-1.9.5c-.6.3-1 .8-1.4 1.4-.3.6-.5 1.3-.5 2.2 0 .8.2 1.6.5 2.2.3.6.8 1.1 1.4 1.4.6.3 1.2.5 1.9.5s1.3-.2 1.9-.5z" fill="#FFF"/></svg>