<svg width="93" height="63" viewBox="0 0 93 63" fill="none" xmlns="http://www.w3.org/2000/svg">
<g clip-path="url(#clip0_149_9097)">
<path d="M35.5523 40.4174H24.1196L43.0745 18.5645H54.5072L35.5523 40.4174ZM70.0383 18.5645H81.4696L62.5147 40.4174H51.0834L70.0383 18.5645Z" fill="#E4DFD1"/>
<path d="M68.922 23.8105H42.1345V28.8234H68.922V23.8105Z" fill="#E4DFD1"/>
<path d="M35.5523 40.4162H24.1196V0H35.5523V40.4162ZM51.8923 24.6547H34.6857V15.1829H51.8923V24.6547ZM51.0834 0H62.5147V40.4162H51.0834V0Z" fill="#A38109"/>
</g>
<path d="M7.69967 50.2361H9.91231V59.7969H7.69967V50.2361ZM3.35634 59.7969H1.1437V50.2361H3.35634V59.7969ZM7.86357 55.877H3.19244V54.0058H7.86357V55.877ZM15.6709 59.9061C14.8332 59.9061 14.0956 59.7422 13.4582 59.4144C12.8299 59.0866 12.3428 58.6405 11.9968 58.0759C11.6508 57.5023 11.4778 56.8512 11.4778 56.1228C11.4778 55.3853 11.6462 54.7342 11.9831 54.1697C12.3291 53.596 12.7981 53.1499 13.3899 52.8312C13.9818 52.5034 14.651 52.3395 15.3977 52.3395C16.117 52.3395 16.7635 52.4943 17.3372 52.8038C17.9199 53.1043 18.3798 53.5414 18.7167 54.115C19.0536 54.6796 19.222 55.3579 19.222 56.1501C19.222 56.2321 19.2175 56.3277 19.2084 56.4369C19.1992 56.5371 19.1901 56.6327 19.181 56.7238H13.2124V55.4809H18.0611L17.2416 55.8496C17.2416 55.4672 17.1642 55.1349 17.0094 54.8526C16.8546 54.5703 16.6406 54.3518 16.3674 54.197C16.0943 54.0331 15.7756 53.9511 15.4114 53.9511C15.0471 53.9511 14.7239 54.0331 14.4416 54.197C14.1685 54.3518 13.9545 54.5749 13.7997 54.8662C13.6449 55.1485 13.5675 55.4854 13.5675 55.877V56.2048C13.5675 56.6054 13.654 56.9605 13.827 57.2701C14.0091 57.5706 14.2595 57.8028 14.5782 57.9667C14.906 58.1215 15.2884 58.1989 15.7255 58.1989C16.117 58.1989 16.4585 58.1397 16.7499 58.0213C17.0503 57.9029 17.3235 57.7254 17.5694 57.4886L18.703 58.7179C18.3661 59.1003 17.9427 59.3962 17.4328 59.6057C16.9229 59.806 16.3356 59.9061 15.6709 59.9061ZM20.6406 59.7969V49.6624H22.7712V59.7969H20.6406ZM24.7487 59.7969V49.6624H26.8794V59.7969H24.7487ZM32.3534 59.9061C31.5703 59.9061 30.8737 59.7422 30.2637 59.4144C29.6627 59.0866 29.1846 58.6405 28.8295 58.0759C28.4835 57.5023 28.3105 56.8512 28.3105 56.1228C28.3105 55.3853 28.4835 54.7342 28.8295 54.1697C29.1846 53.596 29.6627 53.1499 30.2637 52.8312C30.8737 52.5034 31.5703 52.3395 32.3534 52.3395C33.1273 52.3395 33.8194 52.5034 34.4294 52.8312C35.0395 53.1499 35.5175 53.5915 35.8635 54.156C36.2095 54.7206 36.3826 55.3761 36.3826 56.1228C36.3826 56.8512 36.2095 57.5023 35.8635 58.0759C35.5175 58.6405 35.0395 59.0866 34.4294 59.4144C33.8194 59.7422 33.1273 59.9061 32.3534 59.9061ZM32.3534 58.1579C32.7085 58.1579 33.0272 58.0759 33.3094 57.912C33.5917 57.7481 33.8148 57.5159 33.9787 57.2155C34.1426 56.9059 34.2245 56.5417 34.2245 56.1228C34.2245 55.6948 34.1426 55.3306 33.9787 55.0301C33.8148 54.7297 33.5917 54.4975 33.3094 54.3336C33.0272 54.1697 32.7085 54.0877 32.3534 54.0877C31.9983 54.0877 31.6796 54.1697 31.3973 54.3336C31.115 54.4975 30.8874 54.7297 30.7144 55.0301C30.5505 55.3306 30.4685 55.6948 30.4685 56.1228C30.4685 56.5417 30.5505 56.9059 30.7144 57.2155C30.8874 57.5159 31.115 57.7481 31.3973 57.912C31.6796 58.0759 31.9983 58.1579 32.3534 58.1579ZM48.381 50.2361H50.5937V59.7969H48.381V50.2361ZM44.0377 59.7969H41.825V50.2361H44.0377V59.7969ZM48.5449 55.877H43.8738V54.0058H48.5449V55.877ZM52.7055 59.7969V52.4487H54.8361V59.7969H52.7055ZM53.7708 51.4244C53.3793 51.4244 53.0606 51.3105 52.8147 51.0829C52.5689 50.8553 52.446 50.573 52.446 50.2361C52.446 49.8992 52.5689 49.6169 52.8147 49.3893C53.0606 49.1616 53.3793 49.0478 53.7708 49.0478C54.1623 49.0478 54.481 49.1571 54.7269 49.3756C54.9727 49.585 55.0957 49.8582 55.0957 50.1951C55.0957 50.5502 54.9727 50.8462 54.7269 51.0829C54.4901 51.3105 54.1714 51.4244 53.7708 51.4244ZM59.2858 59.9061C58.6575 59.9061 58.052 59.8333 57.4692 59.6876C56.8956 59.5328 56.4403 59.3416 56.1034 59.114L56.8136 57.5842C57.1505 57.7937 57.5466 57.9667 58.0019 58.1033C58.4663 58.2307 58.9215 58.2945 59.3677 58.2945C59.8594 58.2945 60.2054 58.2353 60.4057 58.1169C60.6152 57.9985 60.7199 57.8346 60.7199 57.6252C60.7199 57.4522 60.6379 57.3247 60.474 57.2428C60.3192 57.1517 60.1098 57.0834 59.8457 57.0379C59.5817 56.9924 59.2903 56.9469 58.9716 56.9013C58.662 56.8558 58.3479 56.7966 58.0292 56.7238C57.7105 56.6418 57.4191 56.5234 57.1551 56.3687C56.891 56.2139 56.677 56.0044 56.5131 55.7404C56.3583 55.4763 56.2809 55.1349 56.2809 54.716C56.2809 54.2516 56.413 53.8419 56.677 53.4868C56.9502 53.1316 57.3417 52.8539 57.8516 52.6536C58.3615 52.4442 58.9716 52.3395 59.6818 52.3395C60.1826 52.3395 60.6926 52.3941 61.2116 52.5034C61.7306 52.6126 62.1631 52.772 62.5091 52.9814L61.7989 54.4975C61.4438 54.288 61.0841 54.1469 60.7199 54.0741C60.3648 53.9921 60.0187 53.9511 59.6818 53.9511C59.2084 53.9511 58.8624 54.0149 58.6438 54.1424C58.4253 54.2698 58.316 54.4337 58.316 54.6341C58.316 54.8162 58.3934 54.9527 58.5482 55.0438C58.7121 55.1349 58.9261 55.2077 59.1901 55.2623C59.4542 55.317 59.741 55.367 60.0506 55.4126C60.3693 55.449 60.688 55.5082 61.0067 55.5901C61.3254 55.6721 61.6122 55.7905 61.8672 55.9452C62.1312 56.0909 62.3452 56.2958 62.5091 56.5599C62.673 56.8148 62.755 57.1517 62.755 57.5706C62.755 58.0259 62.6184 58.431 62.3452 58.7862C62.072 59.1322 61.676 59.4053 61.1569 59.6057C60.647 59.806 60.0233 59.9061 59.2858 59.9061ZM67.0744 59.9061C66.2094 59.9061 65.5355 59.6876 65.053 59.2505C64.5704 58.8044 64.3291 58.1442 64.3291 57.2701V50.8234H66.4598V57.2428C66.4598 57.5524 66.5417 57.7937 66.7056 57.9667C66.8695 58.1306 67.0926 58.2125 67.3749 58.2125C67.7118 58.2125 67.9986 58.1215 68.2353 57.9394L68.809 59.4418C68.5904 59.5966 68.3264 59.7149 68.0168 59.7969C67.7163 59.8697 67.4022 59.9061 67.0744 59.9061ZM63.1954 54.2516V52.6126H68.29V54.2516H63.1954ZM73.2748 59.9061C72.4917 59.9061 71.7952 59.7422 71.1851 59.4144C70.5841 59.0866 70.1061 58.6405 69.751 58.0759C69.405 57.5023 69.232 56.8512 69.232 56.1228C69.232 55.3853 69.405 54.7342 69.751 54.1697C70.1061 53.596 70.5841 53.1499 71.1851 52.8312C71.7952 52.5034 72.4917 52.3395 73.2748 52.3395C74.0488 52.3395 74.7408 52.5034 75.3509 52.8312C75.9609 53.1499 76.439 53.5915 76.785 54.156C77.131 54.7206 77.304 55.3761 77.304 56.1228C77.304 56.8512 77.131 57.5023 76.785 58.0759C76.439 58.6405 75.9609 59.0866 75.3509 59.4144C74.7408 59.7422 74.0488 59.9061 73.2748 59.9061ZM73.2748 58.1579C73.6299 58.1579 73.9486 58.0759 74.2309 57.912C74.5132 57.7481 74.7362 57.5159 74.9001 57.2155C75.064 56.9059 75.146 56.5417 75.146 56.1228C75.146 55.6948 75.064 55.3306 74.9001 55.0301C74.7362 54.7297 74.5132 54.4975 74.2309 54.3336C73.9486 54.1697 73.6299 54.0877 73.2748 54.0877C72.9197 54.0877 72.601 54.1697 72.3187 54.3336C72.0365 54.4975 71.8088 54.7297 71.6358 55.0301C71.4719 55.3306 71.39 55.6948 71.39 56.1228C71.39 56.5417 71.4719 56.9059 71.6358 57.2155C71.8088 57.5159 72.0365 57.7481 72.3187 57.912C72.601 58.0759 72.9197 58.1579 73.2748 58.1579ZM78.7282 59.7969V52.4487H80.7633V54.5248L80.4764 53.9238C80.695 53.4048 81.0455 53.0133 81.5281 52.7492C82.0107 52.476 82.598 52.3395 83.29 52.3395V54.3063C83.199 54.2971 83.117 54.2926 83.0442 54.2926C82.9714 54.2835 82.894 54.2789 82.812 54.2789C82.2293 54.2789 81.7558 54.4474 81.3915 54.7843C81.0364 55.1121 80.8589 55.6266 80.8589 56.3277V59.7969H78.7282ZM85.7391 62.5558C85.3567 62.5558 84.9788 62.4967 84.6055 62.3783C84.2322 62.2599 83.9271 62.096 83.6904 61.8866L84.4689 60.3705C84.6328 60.5162 84.8195 60.63 85.0289 60.712C85.2474 60.7939 85.4614 60.8349 85.6709 60.8349C85.9713 60.8349 86.2081 60.7621 86.3811 60.6164C86.5632 60.4798 86.7271 60.2476 86.8728 59.9198L87.2552 59.0184L87.4191 58.7862L90.0552 52.4487H92.1039L88.7849 60.2476C88.5482 60.8395 88.275 61.3038 87.9654 61.6407C87.665 61.9776 87.3281 62.2144 86.9547 62.351C86.5905 62.4876 86.1853 62.5558 85.7391 62.5558ZM86.9957 60.0837L83.7177 52.4487H85.9167L88.4571 58.5949L86.9957 60.0837Z" fill="#5C4905"/>
<defs>
<clipPath id="clip0_149_9097">
<rect width="65.3589" height="40.4162" fill="white" transform="translate(22.8669)"/>
</clipPath>
</defs>
</svg>
