<svg width="72" height="72" viewBox="0 0 72 72" fill="none" xmlns="http://www.w3.org/2000/svg">
<rect width="72" height="72" fill="#F2F1FF"/>
<path opacity="0.35" d="M48 56H24C20.686 56 18 53.314 18 50V34C18 30.686 20.686 28 24 28H48C51.314 28 54 30.686 54 34V50C54 53.314 51.314 56 48 56Z" fill="#4A3AFF"/>
<path d="M28 28C28 23.582 31.582 20 36 20C40.418 20 44 23.582 44 28H48C48 21.372 42.628 16 36 16C29.372 16 24 21.372 24 28H28Z" fill="#4A3AFF"/>
<path d="M36 38C33.79 38 32 39.79 32 42C32 44.21 33.79 46 36 46C38.21 46 40 44.21 40 42C40 39.79 38.21 38 36 38Z" fill="#4A3AFF"/>
</svg>
