<?xml version="1.0" encoding="UTF-8"?> <svg xmlns="http://www.w3.org/2000/svg" xmlns:xlink="http://www.w3.org/1999/xlink" version="1.1" id="Layer_1" x="0px" y="0px" viewBox="0 0 183 128.2" style="enable-background:new 0 0 183 128.2;" xml:space="preserve"> <style type="text/css"> .st0{fill:#1A1D55;} .st1{fill:#F8CF3B;} .st2{fill:#E4072F;} .st3{fill:#26358C;} </style> <g id="Logo_-_haeder" transform="translate(0 -25.387)"> <g id="AMmatch_logo" transform="translate(-75.059 -19.608)"> <g id="Group_49"> <path id="Path_25" class="st0" d="M86.8,119.1h3.6l11.8,28.5h-4l-3.2-7.9H82.1l-3.2,8h-3.8L86.8,119.1z M83.4,136.3h10.2 l-2.3-5.9c-0.9-2.3-1.9-4.7-2.7-7h-0.1c-0.9,2.3-1.8,4.7-2.8,7.2L83.4,136.3z"></path> <path id="Path_26" class="st0" d="M113,130.9c-1.3-1.9-2.6-3.7-3.8-5.6l-0.1,0c0,1.7,0.1,3.9,0.1,6.2v16.1h-3.6v-28.5h3.6 l10.1,14.5l10.1-14.5h3.6v28.5h-3.7v-16.1c0-2.3,0-4.5,0.1-6.2l-0.1,0c-1.3,1.9-2.5,3.8-3.8,5.6l-6.2,8.9L113,130.9z"></path> <path id="Path_27" class="st0" d="M175.4,136.1c0-1.9-0.3-3-1-3.9c-0.8-0.8-1.8-1.2-3-1.2c-2.3,0.2-4.4,1.3-5.9,3 c0,0.4,0,0.9,0,1.4v12.1h-3.5v-11.5c0-2.1-0.2-3-0.9-3.8c-0.8-0.8-1.8-1.3-3-1.2c-2.3,0.1-4.4,1.2-5.9,3v13.5h-3.5v-19.4h3.5v2.4 l0.1,0c1.7-1.8,4.1-2.8,6.6-2.8c2.5-0.1,4.8,1.2,5.9,3.3c2.3-2.2,4.7-3.3,7.4-3.3c1.9-0.1,3.8,0.7,5.1,2c1.2,1.3,1.6,3,1.6,5.7 v12.1h-3.5V136.1z"></path> <path id="Path_28" class="st0" d="M185.8,146.6c-1.3-1-2.1-2.6-2.1-4.3c-0.1-1.9,0.9-3.7,2.6-4.7c1.7-0.9,3.5-1.4,5.4-1.3 c1.4,0,2.8,0.2,4.1,0.5v-1.6c0.1-1.2-0.3-2.3-1.1-3.2c-1-0.8-2.3-1.2-3.6-1.1c-2.1,0-4.2,0.7-5.9,1.9v-3.5c2-1.1,4.2-1.7,6.5-1.7 c2.1-0.1,4.1,0.5,5.8,1.8c1.4,1.3,2.1,3.2,1.9,5.1v8.2c0,1.2,0.4,2,1.5,2c0.4,0,0.8-0.1,1.1-0.3v3c-0.6,0.2-1.2,0.4-1.9,0.4 c-1.5,0.1-3-0.7-3.7-2h-0.1c-1.7,1.4-3.8,2.1-5.9,2.1C188.8,148,187.2,147.5,185.8,146.6z M195.9,143.1v-3.6 c-1.2-0.3-2.5-0.5-3.8-0.5c-2.4,0-4.8,0.7-4.8,3c0,1.9,1.6,2.8,3.7,2.8C192.8,144.8,194.5,144.2,195.9,143.1L195.9,143.1z"></path> <path id="Path_29" class="st0" d="M207.5,140.8v-9.4h-3.6v-3.2h3.6v-5.3l3.5-0.6v5.9h5.8v3.2H211v8.8c0,2.4,0.4,4.6,2.9,4.6 c1,0,2-0.3,2.9-0.8v3.3c-1.1,0.5-2.3,0.7-3.5,0.7c-1.7,0.1-3.3-0.6-4.4-1.8C208,145.1,207.5,143.5,207.5,140.8z"></path> <path id="Path_30" class="st0" d="M235.8,146.6c-1.8,0.9-3.8,1.4-5.8,1.3c-6.1,0-10.5-4.3-10.5-10c0-6,4.7-10.2,10.7-10.2 c1.8,0,3.6,0.4,5.2,1.2v3.7c-1.6-1-3.5-1.6-5.4-1.7c-3.7-0.1-6.9,2.8-7,6.6c0,0.2,0,0.3,0,0.5c0,4,3,6.8,7.1,6.8 c2,0,4-0.7,5.6-1.9V146.6z"></path> <path id="Path_31" class="st0" d="M240.9,117.5h3.5v13.1l0.1,0c1.8-1.8,4.2-2.9,6.8-2.9c1.9-0.1,3.8,0.7,5.2,2.1 c1.1,1.2,1.6,2.7,1.6,5.7v12h-3.5v-11.3c0-2.2-0.3-3.2-0.9-3.9c-0.7-0.8-1.8-1.3-3-1.3c-2.4,0.1-4.7,1.3-6.2,3.2v13.3h-3.5 L240.9,117.5L240.9,117.5z"></path> </g> <circle id="Ellipse_17" class="st1" cx="250.8" cy="89.7" r="7.2"></circle> <circle id="Ellipse_18" class="st2" cx="119.3" cy="89.7" r="7.2"></circle> <path id="Path_32" class="st3" d="M154.1,84.5c-0.2,0-0.4-0.1-0.5-0.2l-23.9-33.8c-2.4-3.4-6.3-5.5-10.5-5.5h-0.1 c-4.2,0-8.1,2-10.5,5.4L75.1,96.9h15.5l28.2-39.2c0.1-0.1,0.2-0.2,0.3-0.2l0,0c0.1,0,0.3,0.1,0.3,0.2l24,33.8 c2,2.9,5.1,4.8,8.5,5.4l2.5-12.6C154.4,84.4,154.4,84.5,154.1,84.5z"></path> <path id="Path_33" class="st0" d="M233.1,54.3c-3-4.3-8-5.8-13.1-4.8s-8.9,4.4-10,9.5l-5.5,25.2c0,0.2-0.1,0.3-0.3,0.4 c-0.2,0-0.4-0.1-0.5-0.2l-20.6-29.6c-4.1-5.8-12.1-7.3-18-3.2c-2.7,1.9-4.5,4.7-5.2,7.9L154.5,84l-2.5,12.9 c1.5,0.3,3.1,0.2,4.6-0.1c5.1-1,9-4.2,10.1-9.3l5.5-25.5c0-0.1,0.1-0.2,0.3-0.3s0.4,0.2,0.5,0.3l20.6,29.6 c4.1,5.8,12.1,7.3,18,3.2c2.7-1.9,4.5-4.7,5.2-7.9l5.5-24.9c0-0.1,0.1-0.2,0.3-0.3c0.2,0,0.4,0.1,0.5,0.3l15,20.7l10.2-7.2 L233.1,54.3z"></path> <g id="Group_50"> <path id="Path_34" class="st3" d="M76.6,166.2c0.2,1.5,1.5,2.5,2.9,2.4c1,0,1.9-0.4,2.7-1v1.5c-0.9,0.5-1.8,0.7-2.8,0.7 c-2.2,0.1-4.1-1.5-4.3-3.8c0-0.1,0-0.2,0-0.4c-0.1-2.2,1.6-4,3.7-4.1c0.1,0,0.1,0,0.2,0c1.9,0,3.6,1.5,3.6,3.5c0,0.1,0,0.2,0,0.4 c0,0.2,0,0.5-0.1,0.7L76.6,166.2L76.6,166.2z M76.7,165h4.6c0-1.2-1-2.1-2.2-2.1c0,0,0,0-0.1,0C77.9,162.9,76.8,163.8,76.7,165 L76.7,165z"></path> <path id="Path_35" class="st3" d="M85.7,166.2c0.2,1.5,1.5,2.5,2.9,2.4c1,0,1.9-0.4,2.7-1v1.5c-0.9,0.5-1.8,0.7-2.8,0.7 c-2.2,0.1-4.1-1.5-4.3-3.8c0-0.1,0-0.2,0-0.4c-0.1-2.2,1.6-4,3.7-4.1c0.1,0,0.1,0,0.2,0c1.9,0,3.6,1.5,3.6,3.5c0,0.1,0,0.2,0,0.4 c0,0.2,0,0.5-0.1,0.7L85.7,166.2L85.7,166.2z M85.7,165h4.6c0-1.2-1-2.1-2.2-2.1c0,0,0,0-0.1,0C86.9,162.9,85.9,163.8,85.7,165 L85.7,165z"></path> <path id="Path_36" class="st3" d="M93.8,161.8h1.4v1l0,0c0.7-0.7,1.7-1.2,2.8-1.2c0.8,0,1.6,0.3,2.1,0.9c0.5,0.7,0.7,1.5,0.7,2.3 v4.9h-1.4v-4.6c0.1-0.6-0.1-1.1-0.4-1.6c-0.3-0.3-0.8-0.5-1.3-0.5c-1,0.1-1.9,0.5-2.5,1.3v5.4h-1.4L93.8,161.8L93.8,161.8z"></path> <path id="Path_37" class="st3" d="M106.3,161.8h1.6l1.2,3.5c0.3,0.8,0.5,1.6,0.8,2.4h0c0.3-0.8,0.6-1.6,0.9-2.4l1.3-3.5h1 l1.3,3.5c0.3,0.8,0.6,1.6,0.9,2.4h0c0.2-0.8,0.5-1.6,0.8-2.4l1.2-3.5h1.5l-2.7,7.9h-1.4l-1.2-3.4c-0.3-0.7-0.5-1.5-0.8-2.2h0 c-0.2,0.7-0.5,1.5-0.8,2.2l-1.2,3.4H109L106.3,161.8z"></path> <path id="Path_38" class="st3" d="M121.3,166.2c0.2,1.5,1.5,2.5,2.9,2.4c1,0,1.9-0.4,2.7-1v1.5c-0.9,0.5-1.8,0.7-2.8,0.7 c-2.2,0.1-4.1-1.5-4.3-3.8c0-0.1,0-0.2,0-0.4c-0.1-2.2,1.6-4,3.7-4.1c0.1,0,0.1,0,0.2,0c1.9,0,3.6,1.5,3.6,3.5c0,0.1,0,0.2,0,0.4 c0,0.2,0,0.5-0.1,0.7L121.3,166.2L121.3,166.2z M121.3,165h4.6c0-1.2-1-2.1-2.2-2.1c0,0,0,0-0.1,0 C122.5,162.9,121.4,163.8,121.3,165L121.3,165z"></path> <path id="Path_39" class="st3" d="M129.4,161.8h1.4v1.2l0,0c0.5-0.8,1.4-1.2,2.3-1.2c0.2,0,0.3,0,0.5,0.1v1.4 c-0.2,0-0.4-0.1-0.6-0.1c-1,0-1.9,0.5-2.3,1.4v5.1h-1.4L129.4,161.8z"></path> <path id="Path_40" class="st3" d="M135.3,157.5h1.4v7.8l0,0l3.5-3.5h1.8l-3.6,3.5l4,4.4h-1.9l-3.9-4.3l0,0v4.3h-1.4L135.3,157.5 L135.3,157.5z"></path> <path id="Path_41" class="st3" d="M144.6,166.2c0.2,1.5,1.5,2.5,2.9,2.4c1,0,1.9-0.4,2.7-1v1.5c-0.9,0.5-1.8,0.7-2.8,0.7 c-2.2,0.1-4.1-1.5-4.3-3.8c0-0.1,0-0.2,0-0.4c-0.1-2.2,1.6-4,3.7-4.1c0.1,0,0.1,0,0.2,0c1.9,0,3.6,1.5,3.6,3.5c0,0.1,0,0.2,0,0.4 c0,0.2,0,0.5-0.1,0.7L144.6,166.2L144.6,166.2z M144.6,165h4.6c0-1.2-1-2.1-2.2-2.1c0,0,0,0-0.1,0 C145.8,162.9,144.8,163.8,144.6,165L144.6,165z"></path> <path id="Path_42" class="st3" d="M152.7,161.8h1.4v1l0,0c0.7-0.7,1.7-1.2,2.8-1.2c0.8,0,1.6,0.3,2.1,0.9 c0.5,0.7,0.7,1.5,0.7,2.3v4.9h-1.4v-4.6c0.1-0.6-0.1-1.1-0.4-1.6c-0.3-0.3-0.8-0.5-1.3-0.5c-1,0.1-1.9,0.5-2.5,1.3v5.4h-1.4 L152.7,161.8L152.7,161.8z"></path> <path id="Path_43" class="st3" d="M165.9,161.6c0.7,0,1.3,0.1,1.9,0.4l0,0v-4.6h1.4v12.2h-1.4v-0.5l0,0c-1.8,1.2-4.2,0.7-5.4-1 c-0.5-0.7-0.7-1.5-0.7-2.3c-0.1-2.2,1.6-4.1,3.9-4.2C165.7,161.6,165.8,161.6,165.9,161.6z M165.7,168.6c0.7,0,1.5-0.2,2.1-0.7 v-4.5c-0.6-0.3-1.3-0.5-1.9-0.5c-1.5,0-2.7,1.2-2.7,2.6c0,0.1,0,0.2,0,0.2c-0.1,1.4,0.9,2.7,2.3,2.8 C165.6,168.6,165.7,168.6,165.7,168.6L165.7,168.6z"></path> <path id="Path_44" class="st3" d="M177.1,173.2h-1.4v-11.4h1.4v0.5l0,0c1.7-1.2,4.1-0.8,5.4,0.9c0.5,0.7,0.8,1.6,0.7,2.5 c0.1,2.2-1.6,4.1-3.8,4.1c-0.1,0-0.2,0-0.3,0c-0.7,0-1.3-0.1-1.9-0.4l0,0V173.2z M179.1,168.6c1.4,0,2.6-1.1,2.6-2.5 c0-0.1,0-0.2,0-0.2c0.1-1.5-1-2.8-2.4-2.9c-0.1,0-0.1,0-0.2,0c-0.7,0-1.5,0.3-2,0.7v4.4C177.7,168.4,178.4,168.6,179.1,168.6 L179.1,168.6z"></path> <path id="Path_45" class="st3" d="M186.1,166.2c0.2,1.5,1.5,2.5,2.9,2.4c1,0,1.9-0.4,2.7-1v1.5c-0.9,0.5-1.8,0.7-2.8,0.7 c-2.2,0.1-4.1-1.5-4.3-3.8c0-0.1,0-0.2,0-0.4c-0.1-2.2,1.6-4,3.7-4.1c0.1,0,0.1,0,0.2,0c1.9,0,3.6,1.5,3.6,3.5c0,0.1,0,0.2,0,0.4 c0,0.2,0,0.5-0.1,0.7L186.1,166.2L186.1,166.2z M186.1,165h4.6c0-1.2-1-2.1-2.2-2.1c0,0,0,0-0.1,0 C187.3,162.9,186.3,163.8,186.1,165L186.1,165z"></path> <path id="Path_46" class="st3" d="M194.2,161.8h1.4v1.2l0,0c0.5-0.8,1.4-1.2,2.3-1.2c0.2,0,0.3,0,0.5,0.1v1.4 c-0.2,0-0.4-0.1-0.6-0.1c-1,0-1.9,0.5-2.3,1.4v5.1h-1.4L194.2,161.8L194.2,161.8z"></path> <path id="Path_47" class="st3" d="M199.8,167.7c0.9,0.6,1.9,0.9,3,0.9c1.1,0,1.8-0.3,1.8-1.1c0-0.9-1.1-1-2.4-1.2 c-1.5-0.3-2.7-0.7-2.7-2.3c0-1.6,1.4-2.4,3.2-2.4c1,0,1.9,0.2,2.8,0.6v1.4c-0.9-0.5-1.9-0.8-2.9-0.8c-1,0-1.7,0.3-1.7,1 c0,0.9,1.1,0.9,2.3,1.1c1.5,0.3,2.8,0.7,2.8,2.3c0,1.8-1.6,2.5-3.3,2.5c-1,0-2-0.2-2.9-0.6L199.8,167.7L199.8,167.7z"></path> <path id="Path_48" class="st3" d="M209.5,173.2h-1.4v-11.4h1.4v0.5l0,0c1.7-1.2,4.1-0.8,5.4,0.9c0.5,0.7,0.8,1.6,0.7,2.5 c0.1,2.2-1.6,4.1-3.8,4.1c-0.1,0-0.2,0-0.3,0c-0.7,0-1.3-0.1-1.9-0.4l0,0V173.2z M211.5,168.6c1.4,0,2.6-1.1,2.6-2.5 c0-0.1,0-0.2,0-0.2c0.1-1.5-1-2.8-2.4-2.9c-0.1,0-0.1,0-0.2,0c-0.7,0-1.5,0.3-2,0.7v4.4C210.1,168.4,210.8,168.6,211.5,168.6z"></path> <path id="Path_49" class="st3" d="M218.5,166.2c0.2,1.5,1.5,2.5,2.9,2.4c1,0,1.9-0.4,2.7-1v1.5c-0.9,0.5-1.8,0.7-2.8,0.7 c-2.2,0.1-4.1-1.5-4.3-3.8c0-0.1,0-0.2,0-0.4c-0.1-2.2,1.6-4,3.7-4.1c0.1,0,0.1,0,0.2,0c1.9,0,3.6,1.5,3.6,3.5c0,0.1,0,0.2,0,0.4 c0,0.2,0,0.5-0.1,0.7L218.5,166.2L218.5,166.2z M218.5,165h4.6c0-1.2-1-2.1-2.2-2.1c0,0,0,0-0.1,0 C219.7,162.9,218.7,163.8,218.5,165L218.5,165z"></path> <path id="Path_50" class="st3" d="M232.7,169.3c-0.7,0.4-1.5,0.6-2.4,0.5c-2.2,0.1-4.1-1.6-4.3-3.8c0-0.1,0-0.2,0-0.3 c0-2.3,1.9-4.2,4.2-4.2c0.1,0,0.1,0,0.2,0c0.7,0,1.5,0.2,2.1,0.5v1.5c-0.7-0.4-1.4-0.7-2.2-0.7c-1.5-0.1-2.8,1.1-2.8,2.7 c0,0.1,0,0.1,0,0.2c0,1.5,1.2,2.7,2.7,2.8c0.1,0,0.2,0,0.2,0c0.8,0,1.6-0.3,2.3-0.8L232.7,169.3L232.7,169.3z"></path> <path id="Path_51" class="st3" d="M235.4,167v-3.8h-1.5v-1.3h1.5v-2.1l1.4-0.2v2.4h2.4v1.3h-2.4v3.6c0,1,0.1,1.9,1.2,1.9 c0.4,0,0.8-0.1,1.2-0.3v1.4c-0.5,0.2-0.9,0.3-1.4,0.3c-0.7,0-1.3-0.2-1.8-0.7C235.5,168.5,235.3,167.7,235.4,167z"></path> <path id="Path_52" class="st3" d="M241.7,158.1c0.6,0,1,0.5,1,1s-0.5,1-1,1c-0.6,0-1-0.5-1-1 C240.7,158.6,241.2,158.1,241.7,158.1C241.7,158.1,241.7,158.1,241.7,158.1z M241,161.8h1.4v7.9H241V161.8z"></path> <path id="Path_53" class="st3" d="M245.9,166.2c0.2,1.5,1.5,2.5,2.9,2.4c1,0,1.9-0.4,2.7-1v1.5c-0.9,0.5-1.8,0.7-2.8,0.7 c-2.2,0.1-4.1-1.5-4.3-3.8c0-0.1,0-0.2,0-0.4c-0.1-2.2,1.6-4,3.7-4.1c0.1,0,0.1,0,0.2,0c1.9,0,3.6,1.5,3.6,3.5c0,0.1,0,0.2,0,0.4 c0,0.2,0,0.5-0.1,0.7L245.9,166.2L245.9,166.2z M245.9,165h4.6c0-1.2-1-2.1-2.2-2.1c0,0,0,0-0.1,0 C247.1,162.9,246.1,163.8,245.9,165L245.9,165z"></path> <path id="Path_54" class="st3" d="M254.3,163.1h-1.2v-1.3h1.2v-1.5c-0.1-0.9,0.2-1.7,0.7-2.4c0.5-0.5,1.2-0.7,1.8-0.7 c0.4,0,0.8,0.1,1.2,0.2v1.3c-0.4-0.1-0.7-0.1-1.1-0.1c-1,0-1.2,0.7-1.2,1.5v1.7h2v1.3h-2v6.6h-1.4L254.3,163.1L254.3,163.1z"></path> </g> </g> </g> </svg> 